<svg width="1000" height="1000" viewBox="0 0 1000 1000" fill="none" xmlns="http://www.w3.org/2000/svg">
<path d="M875 187.5H125C108.424 187.5 92.5268 194.085 80.8058 205.806C69.0848 217.527 62.5 233.424 62.5 250V750C62.5 766.576 69.0848 782.473 80.8058 794.194C92.5268 805.915 108.424 812.5 125 812.5H875C891.576 812.5 907.473 805.915 919.194 794.194C930.915 782.473 937.5 766.576 937.5 750V250C937.5 233.424 930.915 217.527 919.194 205.806C907.473 194.085 891.576 187.5 875 187.5ZM806.25 250L500 461.875L193.75 250H806.25ZM125 750V278.437L482.188 525.625C487.419 529.254 493.633 531.199 500 531.199C506.367 531.199 512.581 529.254 517.812 525.625L875 278.437V750H125Z" fill="white"/>
</svg>
